<svg width="30" height="30" viewBox="0 0 30 30" fill="none" xmlns="http://www.w3.org/2000/svg">
<path d="M25.2152 26.0621C25.0035 26.0621 24.7918 25.9774 24.6224 25.8081L23.6486 24.8342C23.3522 25.1306 22.9922 25.3846 22.6112 25.5752C21.7008 26.041 20.6845 26.041 18.6309 26.041H11.3691C9.33663 26.041 8.29922 26.041 7.38885 25.5752C6.58433 25.1729 5.94919 24.5166 5.52576 23.7121C5.08116 22.8229 5.08116 21.8067 5.08116 19.7742V18.1863C5.08116 16.1539 5.08116 15.1165 5.54693 14.2061C5.94919 13.4016 6.6055 12.7664 7.41002 12.343C7.72759 12.1736 8.06634 12.0678 8.48977 12.0043V10.4587C8.48977 10.2047 8.51094 9.97179 8.53211 9.71774L4.19195 5.39875C3.85321 5.06001 3.85321 4.53072 4.19195 4.19198C4.5307 3.85323 5.05999 3.85323 5.39873 4.19198L10.0141 8.80736C10.0353 8.82853 10.0353 8.82853 10.0565 8.8497L25.8292 24.6225C26.168 24.9612 26.168 25.4905 25.8292 25.8292C25.6598 25.9774 25.427 26.0621 25.2152 26.0621ZM9.37897 13.6133C8.80734 13.6556 8.44742 13.7191 8.17219 13.8673C7.68525 14.1214 7.30416 14.5025 7.05011 14.9894C6.77488 15.5187 6.77488 16.4079 6.77488 18.1863V19.7742C6.77488 21.5526 6.77488 22.4206 7.05011 22.9711C7.30416 23.458 7.68525 23.8391 8.17219 24.0932C8.72265 24.3684 9.61186 24.3684 11.3691 24.3684H18.6309C20.4093 24.3684 21.2773 24.3684 21.8278 24.0932C22.0607 23.9873 22.2724 23.8391 22.4418 23.6486L12.3853 13.5709H11.3691C10.5434 13.5709 9.88709 13.5709 9.37897 13.6133ZM10.1835 11.3691V11.8772C10.3529 11.8772 10.5222 11.8772 10.6916 11.8772L10.1835 11.3691ZM24.072 18.5674C23.6062 18.5674 23.2251 18.1863 23.2251 17.7206C23.2251 16.2174 23.204 15.4552 22.9499 14.9683C22.6958 14.4813 22.3147 14.1002 21.8278 13.8462C21.3409 13.5921 20.5787 13.5709 19.0755 13.5709C18.6097 13.5709 18.2287 13.1899 18.2287 12.7241C18.2287 12.2583 18.6097 11.8772 19.0755 11.8772C19.3296 11.8772 19.5836 11.8772 19.8165 11.8772V10.4587C19.8165 7.79113 17.657 5.63164 14.9894 5.63164C14.079 5.63164 13.1898 5.8857 12.4277 6.35147C12.0254 6.60553 11.5173 6.4785 11.2632 6.07624C11.0092 5.67398 11.1362 5.16587 11.5385 4.91181C12.5759 4.25549 13.7615 3.91675 14.9894 3.91675C18.5886 3.91675 21.5102 6.83841 21.5102 10.4376V11.9831C21.9125 12.0466 22.2724 12.1525 22.59 12.3218C23.3945 12.7241 24.0296 13.3804 24.4531 14.1849C24.8977 15.053 24.9188 16.0268 24.9188 17.6994C24.9188 18.1863 24.5589 18.5674 24.072 18.5674Z" fill="#E4192C"/>
</svg>
