<svg width="22" height="24" viewBox="0 0 22 24" fill="none" xmlns="http://www.w3.org/2000/svg">
<g clip-path="url(#clip0_1101_3550)">
<path d="M10.9776 23.8C10.8429 23.8 10.6858 23.7778 10.5735 23.7556C10.2593 23.6889 10.0572 23.5778 9.76538 23.4445C6.86946 21.9556 0.134766 17.8667 0.134766 12V7.35558C0.134766 6.31113 0.134766 5.71113 0.359255 5.13336C0.561296 4.62224 0.875582 4.1778 1.27966 3.82224C1.75109 3.42224 2.28987 3.22224 3.30007 2.84447L9.94497 0.3778C10.2368 0.266689 10.4164 0.200022 10.6409 0.177799C10.8429 0.155577 11.045 0.155577 11.247 0.177799C11.4715 0.222244 11.6735 0.288911 11.9654 0.3778L18.6327 2.84447C19.6205 3.22224 20.1817 3.42224 20.6531 3.82224C21.0572 4.1778 21.3939 4.64447 21.5735 5.13336C21.798 5.71113 21.798 6.28891 21.798 7.35558V12C21.798 17.8667 15.0633 21.9556 12.1899 23.4667C11.898 23.6222 11.696 23.7334 11.3817 23.7778C11.247 23.8 11.1123 23.8 10.9776 23.8ZM10.9776 1.91113C10.9552 1.91113 10.9327 1.91113 10.9327 1.91113C10.8878 1.91113 10.7531 1.9778 10.596 2.02224L3.92864 4.51113C3.14293 4.80002 2.69395 4.95558 2.46946 5.15558C2.26742 5.33336 2.13272 5.53336 2.04293 5.7778C1.93068 6.04447 1.93068 6.51113 1.93068 7.35558V12C1.93068 17.0222 8.55313 20.8222 10.5735 21.8889C10.7756 22 10.8429 22.0222 10.8878 22.0445C10.9103 22.0445 11.0001 22.0445 11.0225 22.0445C11.0674 22.0445 11.1348 22 11.3368 21.8889C13.3572 20.8445 19.9797 17.0445 19.9797 12V7.35558C19.9797 6.51113 19.9797 6.04447 19.8674 5.7778C19.7776 5.53336 19.6205 5.33336 19.4409 5.15558C19.2164 4.95558 18.7899 4.80002 17.9817 4.51113L11.3593 2.02224C11.2246 1.9778 11.0674 1.91113 11.0225 1.91113C11.0001 1.91113 10.9776 1.91113 10.9776 1.91113Z" fill="#E4192C"/>
<path d="M8.26124 15.6667C7.76736 15.6667 7.36328 15.2667 7.36328 14.7778V8.73337C7.36328 8.24448 7.76736 7.84448 8.26124 7.84448C8.75512 7.84448 9.1592 8.24448 9.1592 8.73337V14.8C9.1592 15.2889 8.75512 15.6667 8.26124 15.6667Z" fill="#E4192C"/>
<path d="M13.6714 15.6667C13.1775 15.6667 12.7734 15.2667 12.7734 14.7778V8.73337C12.7734 8.24448 13.1775 7.84448 13.6714 7.84448C14.1653 7.84448 14.5694 8.24448 14.5694 8.73337V14.8C14.5694 15.2889 14.1653 15.6667 13.6714 15.6667Z" fill="#E4192C"/>
</g>
<defs>
<clipPath id="clip0_1101_3550">
<rect width="22" height="24" fill="white"/>
</clipPath>
</defs>
</svg>
