<svg width="30" height="30" viewBox="0 0 30 30" fill="none" xmlns="http://www.w3.org/2000/svg">
<path d="M15.0106 19.3719C12.597 19.3719 10.6281 17.403 10.6281 14.9894C10.6281 12.5759 12.597 10.6069 15.0106 10.6069C17.4241 10.6069 19.3931 12.5759 19.3931 14.9894C19.3931 17.403 17.4241 19.3719 15.0106 19.3719ZM15.0106 12.3218C13.5286 12.3218 12.3218 13.5286 12.3218 15.0106C12.3218 16.4926 13.5286 17.6994 15.0106 17.6994C16.4926 17.6994 17.6994 16.4926 17.6994 15.0106C17.6994 13.5286 16.4714 12.3218 15.0106 12.3218Z" fill="#E4192C"/>
<path d="M15.0106 26.422C14.3966 26.422 14.0579 26.422 13.7191 26.3161C13.1898 26.1679 12.7241 25.8504 12.3853 25.4269C12.1524 25.1305 12.0254 24.813 11.8137 24.2625C11.6867 23.9449 11.3479 23.7756 11.0092 23.9026L10.3952 24.1143C9.80239 24.3049 9.48482 24.4107 9.10373 24.4319C8.63796 24.4531 8.19336 24.3472 7.7911 24.1143C7.45236 23.9238 7.21947 23.6909 6.77487 23.2675C6.33027 22.8228 6.09738 22.59 5.92801 22.2512C5.71629 21.849 5.61044 21.3832 5.61044 20.9386C5.63161 20.5575 5.73746 20.2399 5.92801 19.6471L6.18207 18.885C6.26675 18.6521 6.13972 18.3768 5.90684 18.2921C5.18701 18.0169 4.80592 17.8476 4.446 17.53C4.12843 17.2547 3.89555 16.8948 3.74734 16.5137C3.57797 16.0691 3.57797 15.6457 3.57797 14.8835C3.57797 14.2272 3.57797 13.8673 3.705 13.4862C3.81086 13.1475 4.0014 12.8299 4.23429 12.5547C4.50952 12.2583 4.80592 12.0677 5.35638 11.729L5.67395 11.5384C6.03387 11.3267 6.18207 10.8821 6.03387 10.4799C5.82215 9.92941 5.69512 9.63301 5.65278 9.2731C5.58926 8.74381 5.71629 8.21452 5.97035 7.72758C6.13972 7.41 6.37261 7.17712 6.79604 6.75369C7.1983 6.35143 7.41001 6.13972 7.70641 5.97034C8.15101 5.71629 8.65913 5.58926 9.16725 5.6316C9.50599 5.65277 9.80239 5.75863 10.3317 5.928L11.0092 6.16089C11.3267 6.26674 11.6867 6.09737 11.8137 5.80097C12.0466 5.22934 12.1736 4.93294 12.3853 4.63654C12.7241 4.21311 13.1898 3.89554 13.7191 3.74734C14.079 3.64148 14.4178 3.64148 15.0106 3.64148C15.6034 3.64148 15.9633 3.64148 16.302 3.74734C16.8313 3.89554 17.2971 4.21311 17.6358 4.63654C17.8687 4.93294 17.9958 5.25051 18.2075 5.80097C18.3345 6.11854 18.6732 6.28792 19.012 6.16089L19.6895 5.928C20.2188 5.75863 20.5152 5.65277 20.8539 5.6316C21.362 5.61043 21.8701 5.71629 22.3147 5.97034C22.6111 6.13972 22.8229 6.35143 23.2251 6.75369C23.6485 7.17712 23.8814 7.41 24.0508 7.72758C24.3049 8.19335 24.4319 8.72264 24.3684 9.2731C24.326 9.63301 24.2202 9.92941 23.9873 10.4799C23.8391 10.8821 23.9873 11.3056 24.3472 11.5384L24.6648 11.729C25.2152 12.0677 25.5328 12.2371 25.7869 12.5547C26.0198 12.8299 26.2103 13.1475 26.3162 13.4862C26.4432 13.8673 26.4432 14.2272 26.4432 14.8835C26.4432 15.6457 26.4432 16.0903 26.2738 16.5137C26.1256 16.8948 25.8927 17.2547 25.5752 17.53C25.2152 17.8476 24.8341 17.9957 24.1143 18.2921C23.8814 18.398 23.7544 18.6521 23.8391 18.9061L24.0931 19.6683C24.2837 20.2611 24.3895 20.5787 24.4107 20.9598C24.4319 21.4255 24.326 21.8701 24.0931 22.2724C23.9026 22.6111 23.6697 22.844 23.2463 23.2886C22.8017 23.7332 22.5688 23.9661 22.2301 24.1355C21.8278 24.3472 21.362 24.4531 20.9174 24.4531C20.5363 24.4319 20.2188 24.326 19.626 24.1355L19.012 23.9238C18.6944 23.8179 18.3345 23.9873 18.2075 24.2837C17.9746 24.8553 17.8476 25.1517 17.6358 25.4481C17.2971 25.8715 16.8313 26.1891 16.302 26.3373C15.9421 26.422 15.6034 26.422 15.0106 26.422ZM11.1997 22.1665C12.1313 22.1665 12.9993 22.717 13.3592 23.6274C13.5286 24.0296 13.6133 24.2837 13.6979 24.3895C13.825 24.5377 13.9732 24.6436 14.1637 24.7071C14.2907 24.7495 14.5448 24.7495 14.9894 24.7495C15.434 24.7495 15.6881 24.7495 15.8151 24.7071C16.0056 24.6436 16.1538 24.5377 16.2809 24.3895C16.3656 24.2837 16.4502 24.0508 16.6196 23.6274C17.0854 22.4841 18.3557 21.8913 19.5201 22.2724L20.1341 22.4841C20.5575 22.6323 20.8116 22.717 20.9386 22.717C21.108 22.717 21.2562 22.6747 21.4044 22.6111C21.5314 22.5476 21.7008 22.3571 22.0183 22.0395C22.3359 21.7219 22.5265 21.5314 22.59 21.4255C22.6747 21.2773 22.6958 21.1291 22.6958 20.9598C22.6958 20.8327 22.6111 20.5787 22.4629 20.1552L22.2089 19.3931C21.849 18.2921 22.3994 17.1065 23.458 16.6831C23.9661 16.4714 24.2837 16.3655 24.3895 16.2385C24.4954 16.1327 24.5801 16.0268 24.6224 15.8786C24.6859 15.7304 24.6859 15.3917 24.6859 14.8412C24.6859 14.3754 24.6859 14.1002 24.6436 13.952C24.6013 13.825 24.5377 13.7191 24.4531 13.6344C24.3684 13.5286 24.1143 13.3804 23.7121 13.1475L23.3945 12.9569C22.3147 12.3006 21.8701 10.988 22.3359 9.82355C22.4841 9.4213 22.59 9.18841 22.6111 9.06138C22.6323 8.87084 22.59 8.68029 22.5053 8.51092C22.4418 8.40506 22.2512 8.21452 21.9548 7.91812C21.6796 7.64289 21.5102 7.47352 21.4044 7.41C21.2562 7.32532 21.0656 7.28298 20.8963 7.28298C20.7692 7.28298 20.5575 7.36766 20.1764 7.49469L19.4989 7.72758C18.3345 8.10866 17.043 7.51586 16.5984 6.3726C16.4291 5.97034 16.3444 5.71629 16.2597 5.61043C16.1327 5.46223 15.9845 5.35637 15.7939 5.29286C15.6669 5.25051 15.4128 5.25051 14.9682 5.25051C14.5236 5.25051 14.2696 5.25051 14.1425 5.29286C13.952 5.35637 13.8038 5.46223 13.6768 5.61043C13.5921 5.71629 13.5074 5.94917 13.338 6.3726C12.8723 7.51586 11.602 8.10866 10.4375 7.72758L9.76005 7.49469C9.37896 7.36766 9.14607 7.28298 9.04022 7.28298C8.87085 7.28298 8.6803 7.30415 8.5321 7.41C8.42624 7.47352 8.25687 7.64289 7.98164 7.91812C7.68524 8.21452 7.4947 8.40506 7.43118 8.51092C7.3465 8.68029 7.30415 8.87084 7.32533 9.06138C7.3465 9.18841 7.43118 9.4213 7.60056 9.82355C8.06633 10.988 7.62173 12.3006 6.54198 12.9569L6.22441 13.1475C5.82215 13.3804 5.58926 13.5286 5.48341 13.6344C5.39872 13.7191 5.33521 13.8461 5.29286 13.952C5.25052 14.079 5.25052 14.3754 5.25052 14.8412C5.25052 15.3917 5.25052 15.7304 5.31403 15.8786C5.35638 16.0056 5.44106 16.1327 5.54692 16.2385C5.67395 16.3444 5.97035 16.4714 6.47847 16.6831C7.55821 17.1065 8.10867 18.2921 7.72758 19.3931L7.47353 20.1552C7.32533 20.5787 7.24064 20.8327 7.24064 20.9598C7.24064 21.1291 7.28298 21.2773 7.3465 21.4255C7.41001 21.5526 7.60056 21.7219 7.91813 22.0395C8.2357 22.3571 8.42624 22.5476 8.5321 22.6111C8.6803 22.6958 8.8285 22.717 8.99787 22.717C9.1249 22.717 9.37896 22.6323 9.80239 22.4841L10.4164 22.2724C10.7128 22.2089 10.9668 22.1665 11.1997 22.1665Z" fill="#E4192C"/>
</svg>
