<svg width="30" height="30" viewBox="0 0 30 30" fill="none" xmlns="http://www.w3.org/2000/svg">
<path d="M21.0233 25.4481H8.97671C6.54198 25.4481 4.55186 23.458 4.55186 21.0233V8.97672C4.55186 6.542 6.54198 4.55188 8.97671 4.55188H21.0233C23.458 4.55188 25.4481 6.542 25.4481 8.97672V21.0233C25.4481 23.4792 23.4792 25.4481 21.0233 25.4481ZM8.97671 6.2456C7.47353 6.2456 6.24558 7.47355 6.24558 8.97672V21.0233C6.24558 22.5265 7.47353 23.7544 8.97671 23.7544H21.0233C22.5265 23.7544 23.7544 22.5265 23.7544 21.0233V8.97672C23.7544 7.47355 22.5265 6.2456 21.0233 6.2456H8.97671Z" fill="#E4192C"/>
<path d="M13.9097 17.9323C13.5709 17.9323 13.2322 17.8052 12.9569 17.5512L11.115 15.7092C10.7763 15.3705 10.7763 14.8412 11.115 14.5025C11.4538 14.1637 11.9831 14.1637 12.3218 14.5025L13.9097 16.0903L17.6782 12.3218C18.0169 11.9831 18.5462 11.9831 18.885 12.3218C19.2237 12.6606 19.2237 13.1898 18.885 13.5286L14.8624 17.5512C14.5871 17.8052 14.2484 17.9323 13.9097 17.9323Z" fill="#E4192C"/>
</svg>
