<svg width="30" height="30" viewBox="0 0 30 30" fill="none" xmlns="http://www.w3.org/2000/svg">
<path d="M15.0106 26.2739C14.8836 26.2739 14.7354 26.2527 14.6295 26.2315C14.3331 26.168 14.1426 26.0621 13.8673 25.9351C11.1362 24.5166 4.78476 20.6211 4.78476 15.0318V10.607C4.78476 9.6119 4.78476 9.04027 4.99647 8.48981C5.18702 8.00286 5.48342 7.57943 5.86451 7.24069C6.30911 6.8596 6.81722 6.66906 7.76994 6.30914L14.0367 3.95911C14.3119 3.85325 14.4813 3.78974 14.693 3.76856C14.8836 3.74739 15.0741 3.74739 15.2646 3.76856C15.4764 3.81091 15.6669 3.87442 15.9421 3.95911L22.2301 6.30914C23.1616 6.66906 23.6909 6.8596 24.1355 7.24069C24.5166 7.57943 24.8342 8.02403 25.0035 8.48981C25.2152 9.04027 25.2152 9.59072 25.2152 10.607V15.0318C25.2152 20.6211 18.8638 24.5166 16.1539 25.9563C15.8786 26.1045 15.6881 26.2103 15.3917 26.2527C15.2646 26.2739 15.1376 26.2739 15.0106 26.2739ZM15.0106 5.41994C14.9894 5.41994 14.9682 5.41994 14.9682 5.41994C14.9259 5.41994 14.7989 5.48346 14.6507 5.5258L8.36274 7.897C7.62174 8.17223 7.19831 8.32044 6.98659 8.51098C6.79605 8.68035 6.66902 8.87089 6.58434 9.10378C6.47848 9.35784 6.47848 9.80244 6.47848 10.607V15.0318C6.47848 19.8166 12.7241 23.4369 14.6295 24.4531C14.82 24.559 14.8836 24.5801 14.9259 24.6013C14.9471 24.6013 15.0318 24.6013 15.0529 24.6013C15.0953 24.6013 15.1588 24.559 15.3493 24.4531C17.2548 23.458 23.5004 19.8377 23.5004 15.0318V10.607C23.5004 9.80244 23.5004 9.35784 23.3945 9.10378C23.3098 8.87089 23.1616 8.68035 22.9922 8.51098C22.7805 8.32044 22.3783 8.17223 21.6161 7.897L15.3705 5.5258C15.2435 5.48346 15.0953 5.41994 15.0529 5.41994C15.0318 5.41994 15.0106 5.41994 15.0106 5.41994Z" fill="#E4192C"/>
<path d="M12.4488 18.5251C11.9831 18.5251 11.602 18.144 11.602 17.6783V11.9196C11.602 11.4538 11.9831 11.0728 12.4488 11.0728C12.9146 11.0728 13.2957 11.4538 13.2957 11.9196V17.6994C13.2957 18.1652 12.9146 18.5251 12.4488 18.5251Z" fill="#E4192C"/>
<path d="M17.5512 18.5251C17.0854 18.5251 16.7043 18.144 16.7043 17.6783V11.9196C16.7043 11.4538 17.0854 11.0728 17.5512 11.0728C18.0169 11.0728 18.398 11.4538 18.398 11.9196V17.6994C18.398 18.1652 18.0169 18.5251 17.5512 18.5251Z" fill="#E4192C"/>
</svg>
