<svg width="38" height="38" viewBox="0 0 38 38" fill="none" xmlns="http://www.w3.org/2000/svg">
<g clip-path="url(#clip0_1194_116)">
<path d="M29.9695 33.5H14.4052C14.074 33.5 13.7705 33.3899 13.5497 33.1695L6.15393 26.1192C5.90556 25.8989 5.76758 25.5684 5.76758 25.2104V11.4953C5.76758 10.8068 6.3195 10.256 7.00941 10.256H29.9695C30.6594 10.256 31.2113 10.8068 31.2113 11.4953V17.0584H36.7581C37.4481 17.0584 38 17.6093 38 18.2978V25.2104C38 25.8989 37.4481 26.4497 36.7581 26.4497H31.2113V32.2607C31.2113 32.9492 30.6594 33.5 29.9695 33.5ZM14.9019 31.0214H28.7276V25.2379C28.7276 24.5494 29.2796 23.9986 29.9695 23.9986H35.5163V19.5371H29.9695C29.2796 19.5371 28.7276 18.9863 28.7276 18.2978V12.7346H8.25124V24.6871L14.9019 31.0214Z" fill="#E4192C"/>
<path d="M1.24183 25.9539C0.551925 25.9539 0 25.4031 0 24.7146V14.8276C0 14.1391 0.551925 13.5883 1.24183 13.5883C1.93174 13.5883 2.48366 14.1391 2.48366 14.8276V18.5455H7.00944C7.69935 18.5455 8.25127 19.0963 8.25127 19.7848C8.25127 20.4733 7.69935 21.0241 7.00944 21.0241H2.48366V24.7421C2.48366 25.4031 1.93174 25.9539 1.24183 25.9539Z" fill="#E4192C"/>
<path d="M36.7584 30.7735C36.0685 30.7735 35.5166 30.2227 35.5166 29.5342V14.2217C35.5166 13.5332 36.0685 12.9824 36.7584 12.9824C37.4483 12.9824 38.0003 13.5332 38.0003 14.2217V29.5066C38.0003 30.2227 37.4483 30.7735 36.7584 30.7735Z" fill="#E4192C"/>
<path d="M21.1938 12.7346C20.5039 12.7346 19.952 12.1838 19.952 11.4952V6.97863H13.6049C12.915 6.97863 12.363 6.42782 12.363 5.73932C12.363 5.05081 12.915 4.5 13.6049 4.5H26.1612C26.8511 4.5 27.403 5.05081 27.403 5.73932C27.403 6.42782 26.8511 6.97863 26.1612 6.97863H22.4357V11.4952C22.4357 12.1838 21.8837 12.7346 21.1938 12.7346Z" fill="#E4192C"/>
</g>
<defs>
<clipPath id="clip0_1194_116">
<rect width="38" height="38" fill="white"/>
</clipPath>
</defs>
</svg>
