<svg width="38" height="38" viewBox="0 0 38 38" fill="none" xmlns="http://www.w3.org/2000/svg">
<path d="M31.8449 33H27.3793C26.7377 33 26.2244 32.4757 26.2244 31.8202V23.6929C26.2244 23.0375 26.7377 22.5131 27.3793 22.5131H31.8449C32.4865 22.5131 32.9998 23.0375 32.9998 23.6929V31.8202C32.9998 32.4757 32.4865 33 31.8449 33ZM28.5342 30.6405H30.69V24.8727H28.5342V30.6405Z" fill="#E4192C"/>
<path d="M10.6205 33H6.1549C5.51329 33 5 32.4757 5 31.8202V23.6929C5 23.0375 5.51329 22.5131 6.1549 22.5131H10.6205C11.2621 22.5131 11.7754 23.0375 11.7754 23.6929V31.8202C11.7754 32.4757 11.2621 33 10.6205 33ZM7.30981 30.6405H9.46563V24.8727H7.30981V30.6405Z" fill="#E4192C"/>
<path d="M27.3797 28.9363H10.6207C9.97911 28.9363 9.46582 28.412 9.46582 27.7566C9.46582 27.1011 9.97911 26.5768 10.6207 26.5768H27.3797C28.0213 26.5768 28.5346 27.1011 28.5346 27.7566C28.5346 28.412 27.9956 28.9363 27.3797 28.9363Z" fill="#E4192C"/>
<path d="M18.9874 28.9363C18.3458 28.9363 17.8325 28.412 17.8325 27.7566V12.603C17.8325 11.9476 18.3458 11.4232 18.9874 11.4232C19.629 11.4232 20.1423 11.9476 20.1423 12.603V27.7566C20.1423 28.3858 19.629 28.9363 18.9874 28.9363Z" fill="#E4192C"/>
<path d="M16.6776 11.397H10.6207C9.97911 11.397 9.46582 10.8727 9.46582 10.2173C9.46582 9.56182 9.97911 9.03748 10.6207 9.03748H16.6776C17.3192 9.03748 17.8325 9.56182 17.8325 10.2173C17.8325 10.8727 17.3192 11.397 16.6776 11.397Z" fill="#E4192C"/>
<path d="M21.2972 13.7828H16.6776C16.036 13.7828 15.5227 13.2585 15.5227 12.603V7.88394C15.5227 7.22851 16.036 6.70416 16.6776 6.70416H21.2972C21.9388 6.70416 22.4521 7.22851 22.4521 7.88394V12.603C22.4521 13.2323 21.9388 13.7828 21.2972 13.7828ZM17.8325 11.4233H20.1423V9.06371H17.8325V11.4233Z" fill="#E4192C"/>
<path d="M27.3795 11.397H21.297C20.6554 11.397 20.1421 10.8727 20.1421 10.2173C20.1421 9.56182 20.6554 9.03748 21.297 9.03748H27.3538C27.9954 9.03748 28.5087 9.56182 28.5087 10.2173C28.5087 10.8727 27.9954 11.397 27.3795 11.397Z" fill="#E4192C"/>
<path d="M31.8449 15.4869H27.3793C26.7377 15.4869 26.2244 14.9625 26.2244 14.3071V6.17978C26.2244 5.52434 26.7377 5 27.3793 5H31.8449C32.4865 5 32.9998 5.52434 32.9998 6.17978V14.3071C32.9998 14.9363 32.4865 15.4869 31.8449 15.4869ZM28.5342 13.1273H30.69V7.35955H28.5342V13.1273Z" fill="#E4192C"/>
<path d="M10.6205 15.4869H6.1549C5.51329 15.4869 5 14.9625 5 14.3071V6.17978C5 5.52434 5.51329 5 6.1549 5H10.6205C11.2621 5 11.7754 5.52434 11.7754 6.17978V14.3071C11.7754 14.9363 11.2621 15.4869 10.6205 15.4869ZM7.30981 13.1273H9.46563V7.35955H7.30981V13.1273Z" fill="#E4192C"/>
</svg>
