<svg width="38" height="38" viewBox="0 0 38 38" fill="none" xmlns="http://www.w3.org/2000/svg">
<path d="M30.1545 19.5689H8.74485C8.08324 19.5689 7.55396 19.0396 7.55396 18.378C7.55396 17.7164 8.08324 17.1871 8.74485 17.1871H30.1545C30.8161 17.1871 31.3454 17.7164 31.3454 18.378C31.3454 19.0396 30.8161 19.5689 30.1545 19.5689Z" fill="#E4192C"/>
<path d="M8.74495 12.3706C6.7072 12.3706 5.06641 10.7299 5.06641 8.6921C5.06641 6.65434 6.7072 5.01355 8.74495 5.01355C10.7562 5.01355 12.4235 6.65434 12.4235 8.6921C12.4235 10.7299 10.7562 12.3706 8.74495 12.3706ZM8.74495 7.39534C8.03041 7.39534 7.4482 7.97756 7.4482 8.6921C7.4482 9.40663 8.03041 9.98885 8.74495 9.98885C9.45949 9.98885 10.0417 9.40663 10.0417 8.6921C10.0417 7.97756 9.45949 7.39534 8.74495 7.39534Z" fill="#E4192C"/>
<path d="M8.74495 32.9864C6.7072 32.9864 5.06641 31.3456 5.06641 29.3078C5.06641 27.2701 6.7072 25.6293 8.74495 25.6293C10.7827 25.6293 12.4235 27.2701 12.4235 29.3078C12.4235 31.3456 10.7562 32.9864 8.74495 32.9864ZM8.74495 27.9846C8.03041 27.9846 7.4482 28.5668 7.4482 29.2814C7.4482 29.9959 8.03041 30.5781 8.74495 30.5781C9.45949 30.5781 10.0417 29.9959 10.0417 29.2814C10.0417 28.5668 9.45949 27.9846 8.74495 27.9846Z" fill="#E4192C"/>
<path d="M8.74485 27.9846C8.08324 27.9846 7.55396 27.4553 7.55396 26.7937V11.1797C7.55396 10.5181 8.08324 9.98883 8.74485 9.98883C9.40646 9.98883 9.93575 10.5181 9.93575 11.1797V26.7937C9.93575 27.4553 9.40646 27.9846 8.74485 27.9846Z" fill="#E4192C"/>
<path d="M19.463 12.3971C17.4252 12.3971 15.7844 10.7563 15.7844 8.71856C15.7844 6.6808 17.4252 5.01355 19.463 5.01355C21.5007 5.01355 23.1415 6.6808 23.1415 8.71856C23.1415 10.7563 21.5007 12.3971 19.463 12.3971ZM19.463 7.39534C18.7484 7.39534 18.1662 7.97756 18.1662 8.6921C18.1662 9.40663 18.7484 9.98885 19.463 9.98885C20.1775 9.98885 20.7597 9.40663 20.7597 8.6921C20.7597 7.97756 20.1775 7.39534 19.463 7.39534Z" fill="#E4192C"/>
<path d="M19.463 32.9864C17.4252 32.9864 15.7844 31.3456 15.7844 29.3078C15.7844 27.2701 17.4252 25.6293 19.463 25.6293C21.5007 25.6293 23.1415 27.2701 23.1415 29.3078C23.1415 31.3456 21.5007 32.9864 19.463 32.9864ZM19.463 28.0111C18.7484 28.0111 18.1662 28.5933 18.1662 29.3078C18.1662 30.0224 18.7484 30.6046 19.463 30.6046C20.1775 30.6046 20.7597 30.0224 20.7597 29.3078C20.7597 28.5933 20.1775 28.0111 19.463 28.0111Z" fill="#E4192C"/>
<path d="M19.4629 28.0111C18.8013 28.0111 18.272 27.4818 18.272 26.8202V11.2062C18.272 10.5446 18.8013 10.0153 19.4629 10.0153C20.1245 10.0153 20.6538 10.5446 20.6538 11.2062V26.8202C20.6538 27.4818 20.1245 28.0111 19.4629 28.0111Z" fill="#E4192C"/>
<path d="M30.1546 12.3706C28.1169 12.3706 26.4761 10.7299 26.4761 8.6921C26.4761 6.65434 28.1169 5.01355 30.1546 5.01355C32.1924 5.01355 33.8332 6.65434 33.8332 8.6921C33.8332 10.7299 32.1924 12.3706 30.1546 12.3706ZM30.1546 7.39534C29.4401 7.39534 28.8579 7.97756 28.8579 8.6921C28.8579 9.40663 29.4401 9.98885 30.1546 9.98885C30.8692 9.98885 31.4514 9.40663 31.4514 8.6921C31.4514 7.97756 30.8692 7.39534 30.1546 7.39534Z" fill="#E4192C"/>
<path d="M30.1546 32.9864C28.1169 32.9864 26.4761 31.3456 26.4761 29.3078C26.4761 27.2701 28.1169 25.6293 30.1546 25.6293C32.1924 25.6293 33.8332 27.2701 33.8332 29.3078C33.8332 31.3456 32.1924 32.9864 30.1546 32.9864ZM30.1546 27.9846C29.4401 27.9846 28.8579 28.5668 28.8579 29.2814C28.8579 29.9959 29.4401 30.5781 30.1546 30.5781C30.8692 30.5781 31.4514 29.9959 31.4514 29.2814C31.4514 28.5668 30.8692 27.9846 30.1546 27.9846Z" fill="#E4192C"/>
<path d="M30.1545 27.9846C29.4929 27.9846 28.9636 27.4553 28.9636 26.7937V11.1797C28.9636 10.5181 29.4929 9.98883 30.1545 9.98883C30.8161 9.98883 31.3454 10.5181 31.3454 11.1797V26.7937C31.3454 27.4553 30.8161 27.9846 30.1545 27.9846Z" fill="#E4192C"/>
</svg>
