<svg width="38" height="38" viewBox="0 0 38 38" fill="none" xmlns="http://www.w3.org/2000/svg">
<path d="M10.5587 29.2912C9.18218 29.2912 7.91159 28.5235 7.2763 27.3324C4.41748 21.7471 4.60277 16.2677 7.75277 12.2441C11.8292 7.08236 19.7704 5.30883 29.0351 7.53236C30.7557 7.95589 31.9469 9.51765 31.841 11.2912C31.5498 17.3 29.9351 21.4559 26.7587 24.3677C23.3439 27.5177 18.0763 29.1324 10.6116 29.3176C10.6381 29.2912 10.6116 29.2912 10.5587 29.2912ZM21.6234 8.96177C16.3822 8.96177 12.0675 10.6029 9.63218 13.7C7.03806 17.0088 6.95865 21.4559 9.39395 26.2206C9.60571 26.6441 10.0822 26.9088 10.5851 26.8824C17.441 26.7235 22.2057 25.2941 25.1969 22.5677C27.8704 20.1059 29.2469 16.4794 29.5116 11.1324C29.5381 10.4971 29.1145 9.94118 28.5057 9.80883C26.0969 9.25295 23.7939 8.96177 21.6234 8.96177Z" fill="#E4192C"/>
<path d="M7.75266 33.3412C7.64678 33.3412 7.54089 33.3147 7.43501 33.2882C6.79972 33.1029 6.42913 32.4677 6.58795 31.8324C6.69383 31.4353 6.79972 31.0382 6.9056 30.6412C8.7056 23.9971 9.89678 19.6029 18.1027 16.1882C18.7115 15.9235 19.3997 16.2147 19.6644 16.8235C19.9291 17.4324 19.638 18.1206 19.0291 18.3853C11.9085 21.35 11.0085 24.6588 9.23501 31.2765C9.12913 31.6735 9.02325 32.0706 8.91736 32.4677C8.75854 32.9971 8.28207 33.3412 7.75266 33.3412Z" fill="#E4192C"/>
</svg>
