<svg width="22" height="22" viewBox="0 0 22 22" fill="none" xmlns="http://www.w3.org/2000/svg">
<g clip-path="url(#clip0_1101_3546)">
<path d="M17.2261 21.8241H4.70811C2.17811 21.8241 0.110107 19.7561 0.110107 17.2261V4.70811C0.110107 2.17811 2.17811 0.110107 4.70811 0.110107H17.2261C19.7561 0.110107 21.8241 2.17811 21.8241 4.70811V17.2261C21.8241 19.7781 19.7781 21.8241 17.2261 21.8241ZM4.70811 1.87011C3.14611 1.87011 1.87011 3.14611 1.87011 4.70811V17.2261C1.87011 18.7881 3.14611 20.0641 4.70811 20.0641H17.2261C18.7881 20.0641 20.0641 18.7881 20.0641 17.2261V4.70811C20.0641 3.14611 18.7881 1.87011 17.2261 1.87011H4.70811Z" fill="#E4192C"/>
<path d="M9.83402 14.0142C9.48202 14.0142 9.13002 13.8822 8.84402 13.6182L6.93002 11.7042C6.57802 11.3522 6.57802 10.8022 6.93002 10.4502C7.28202 10.0982 7.83202 10.0982 8.18402 10.4502L9.83402 12.1002L13.75 8.18417C14.102 7.83217 14.652 7.83217 15.004 8.18417C15.356 8.53617 15.356 9.08617 15.004 9.43817L10.824 13.6182C10.538 13.8822 10.186 14.0142 9.83402 14.0142Z" fill="#E4192C"/>
</g>
<defs>
<clipPath id="clip0_1101_3546">
<rect width="22" height="22" fill="white"/>
</clipPath>
</defs>
</svg>
