<svg width="21" height="17" viewBox="0 0 21 17" fill="none" xmlns="http://www.w3.org/2000/svg">
<path d="M19.2097 0.15009C19.2097 0.15009 21.1523 -0.585789 20.9904 1.2013C20.9365 1.93718 20.4508 4.51268 20.0731 7.29845L18.778 15.5506C18.778 15.5506 18.67 16.7595 17.6987 16.9697C16.7274 17.1799 15.2704 16.2339 15.0006 16.0236C14.7847 15.866 10.9534 13.5007 9.6043 12.3443C9.22656 12.029 8.79485 11.3982 9.65827 10.6624L15.3244 5.40625C15.9719 4.77548 16.6195 3.30377 13.9213 5.09086L6.36654 10.0842C6.36654 10.0842 5.50315 10.6098 3.88429 10.1368L0.376713 9.08551C0.376713 9.08551 -0.918396 8.29711 1.29407 7.50865C6.69036 5.03826 13.3278 2.51532 19.2097 0.15009Z" fill="white"/>
</svg>
