<svg width="21" height="15" viewBox="0 0 21 15" fill="none" xmlns="http://www.w3.org/2000/svg">
<path d="M20.7373 2.98757C20.5381 1.40433 19.6299 0.411249 18.0177 0.264557C16.1718 0.0966443 12.1758 0 10.3223 0C6.53113 0 4.8369 0.0932458 3.04405 0.280115C1.3355 0.457871 0.587575 1.22239 0.2936 2.8007C0.0877051 3.90674 0 4.94264 0 7.39084C0 9.59003 0.103137 10.9731 0.262735 12.1368C0.482182 13.7348 1.57152 14.6327 3.16787 14.7665C5.0251 14.9223 8.74555 15 10.5851 15C12.3625 15 16.3626 14.9068 18.1411 14.7044C19.733 14.5232 20.4899 13.6669 20.7373 12.0901C20.7373 12.0901 21 10.3629 21 7.37531C21 5.67418 20.8765 4.09209 20.7373 2.98757ZM8.26713 10.472V4.39303L14.0153 7.40147L8.26713 10.472Z" fill="white"/>
</svg>
